SplineFontDB: 3.0
FontName: wast
FullName: wast
FamilyName: wast
Weight: Medium
Copyright: Created by digit with FontForge 2.0 (http://fontforge.sf.net)
UComments: "2015-2-21: Created." 
Version: 001.000
ItalicAngle: 0
UnderlinePosition: -128
UnderlineWidth: 44
Ascent: 768
Descent: 128
LayerCount: 2
Layer: 0 0 "Back"  1
Layer: 1 0 "Fore"  0
NeedsXUIDChange: 1
XUID: [1021 255 1586799369 11632673]
FSType: 8
OS2Version: 0
OS2_WeightWidthSlopeOnly: 0
OS2_UseTypoMetrics: 1
CreationTime: 1424526975
ModificationTime: 1426005263
PfmFamily: 17
TTFWeight: 500
TTFWidth: 5
LineGap: 80
VLineGap: 80
OS2TypoAscent: 0
OS2TypoAOffset: 1
OS2TypoDescent: 0
OS2TypoDOffset: 1
OS2TypoLinegap: 80
OS2WinAscent: 0
OS2WinAOffset: 1
OS2WinDescent: 0
OS2WinDOffset: 1
HheadAscent: 0
HheadAOffset: 1
HheadDescent: 0
HheadDOffset: 1
OS2Vendor: 'PfEd'
MarkAttachClasses: 1
DEI: 91125
LangName: 1033 
Encoding: ISO8859-1
UnicodeInterp: none
NameList: Adobe Glyph List
DisplaySize: -24
AntiAlias: 1
FitToEm: 1
WinInfo: 0 27 5
BeginPrivate: 0
EndPrivate
TeXData: 1 0 0 346030 173015 115343 0 1048576 115343 783286 444596 497025 792723 393216 433062 380633 303038 157286 324010 404750 52429 2506097 1059062 262144
BeginChars: 256 96

StartChar: e
Encoding: 101 101 0
Width: 672
VWidth: 0
Flags: HW
LayerCount: 2
Fore
SplineSet
0 0 m 29
 0 448 l 21
 560 448 l 5
 560 224 l 5
 224 224 l 5
 224 336 l 5
 112 336 l 5
 112 112 l 5
 332 112 l 13
 332 0 l 29
 0 0 l 29
EndSplineSet
EndChar

StartChar: exclam
Encoding: 33 33 2
Width: 672
VWidth: 0
Flags: HW
LayerCount: 2
Fore
SplineSet
224 225 m 29
 224 560 l 29
 332 560 l 29
 332 225 l 29
 224 225 l 29
224 0 m 29
 224 112 l 29
 332 112 l 29
 332 0 l 29
 224 0 l 29
EndSplineSet
EndChar

StartChar: quotedbl
Encoding: 34 34 3
Width: 672
VWidth: 0
Flags: HW
LayerCount: 2
Fore
SplineSet
432 416 m 25
 432 640 l 25
 544 640 l 25
 544 416 l 25
 432 416 l 25
128 416 m 25
 128 640 l 25
 240 640 l 25
 240 416 l 25
 128 416 l 25
EndSplineSet
EndChar

StartChar: numbersign
Encoding: 35 35 4
Width: 672
VWidth: 0
Flags: HW
LayerCount: 2
Fore
SplineSet
224 224 m 29
 336 224 l 25
 336 336 l 25
 224 336 l 25
 224 224 l 29
112 0 m 25
 112 112 l 25
 0 112 l 25
 0 224 l 25
 112 224 l 25
 112 338 l 25
 0 338 l 25
 0 448 l 25
 112 448 l 25
 112 556 l 25
 224 556 l 25
 224 448 l 25
 336 448 l 25
 336 556 l 25
 448 556 l 25
 448 448 l 25
 556 448 l 25
 556 338 l 25
 448 338 l 25
 448 224 l 25
 556 224 l 25
 556 112 l 25
 448 112 l 25
 448 0 l 25
 336 0 l 25
 336 112 l 25
 224 112 l 25
 224 0 l 25
 112 0 l 25
EndSplineSet
EndChar

StartChar: dollar
Encoding: 36 36 5
Width: 672
VWidth: 0
Flags: HW
LayerCount: 2
Fore
SplineSet
112 336 m 25
 224 336 l 25
 224 448 l 25
 112 448 l 25
 112 336 l 25
338 112 m 25
 448 112 l 25
 448 224 l 25
 338 224 l 25
 338 112 l 25
0 0 m 25
 0 112 l 25
 224 112 l 25
 224 224 l 25
 112 224 l 26
 52 224 0 263 0 329 c 8
 0 375 0 401 0 448 c 0
 0 509 30 556 112 556 c 8
 156 556 180 556 224 556 c 25
 224 668 l 25
 336 668 l 25
 336 556 l 25
 556 556 l 25
 556 448 l 25
 338 448 l 25
 338 338 l 25
 448 338 l 26
 509 338 556 278 556 224 c 8
 556 180 556 112 556 112 c 2
 556 24 511 0 448 0 c 8
 404 0 380 0 336 0 c 25
 336 -112 l 25
 224 -112 l 25
 224 0 l 25
 0 0 l 25
EndSplineSet
EndChar

StartChar: percent
Encoding: 37 37 6
Width: 672
VWidth: 0
Flags: HW
LayerCount: 2
Fore
SplineSet
0 0 m 25
 0 224 l 25
 112 224 l 25
 112 0 l 25
 0 0 l 25
449 342 m 25
 449 554 l 25
 557 553 l 25
 557 342 l 25
 449 342 l 25
338 -0 m 25
 338 224 l 25
 562 224 l 25
 562 -0 l 25
 338 -0 l 25
0 338 m 25
 0 562 l 25
 224 562 l 25
 224 338 l 25
 0 338 l 25
EndSplineSet
EndChar

StartChar: ampersand
Encoding: 38 38 7
Width: 672
VWidth: 0
Flags: HW
LayerCount: 2
Fore
SplineSet
0 112 m 29
 0 224 l 25
 0 338 l 25
 112 338 l 25
 112 450 l 25
 0 450 l 25
 0 562 l 25
 448 562 l 25
 448 450 l 25
 224 450 l 25
 224 226 l 25
 112 226 l 25
 112 114 l 25
 448 114 l 25
 448 224 l 25
 338 224 l 25
 338 338 l 25
 556 338 l 25
 556 0 l 25
 0 0 l 25
 0 112 l 29
EndSplineSet
EndChar

StartChar: quotesingle
Encoding: 39 39 8
Width: 672
VWidth: 0
Flags: HW
LayerCount: 2
Fore
SplineSet
224 338 m 29
 224 550 l 29
 332 549 l 29
 332 338 l 29
 224 338 l 29
EndSplineSet
EndChar

StartChar: parenleft
Encoding: 40 40 9
Width: 672
VWidth: 0
Flags: HW
LayerCount: 2
Fore
SplineSet
448 -112 m 29
 224 -112 l 30
 100 -112 0 -112 0 112 c 12
 0 243 0 448 0 448 c 14
 0 572 0 672 224 672 c 12
 311 672 361 672 448 672 c 29
 448 560 l 29
 224 560 l 22
 112 560 112 396 112 278 c 28
 112 161 112 0 224 0 c 12
 311 0 361 0 448 0 c 29
 448 -112 l 29
EndSplineSet
EndChar

StartChar: parenright
Encoding: 41 41 10
Width: 672
VWidth: 0
Flags: HW
LayerCount: 2
Fore
SplineSet
0 -112 m 17
 0 -73 0 -35 0 0 c 9
 87 0 137 0 224 0 c 16
 336 0 336 161 336 278 c 24
 336 396 336 560 224 560 c 10
 0 560 l 25
 0 672 l 25
 87 672 137 672 224 672 c 16
 448 672 448 572 448 448 c 18
 448 448 448 243 448 112 c 16
 448 -112 348 -112 224 -112 c 26
 0 -112 l 17
EndSplineSet
EndChar

StartChar: asterisk
Encoding: 42 42 11
Width: 672
VWidth: 0
Flags: HW
LayerCount: 2
Fore
SplineSet
336 224 m 25
 336 324 l 29
 448 324 l 25
 448 224 l 25
 336 224 l 25
112 224 m 25
 112 324 l 25
 224 324 l 29
 224 224 l 25
 112 224 l 25
448 448 m 21
 336 448 l 4
 336 324 l 0
 224 324 l 0
 224 448 l 4
 112 448 l 4
 112 560 l 4
 224 560 l 4
 224 672 l 13
 336 672 l 21
 336 560 l 4
 448 560 l 13
 448 448 l 21
EndSplineSet
EndChar

StartChar: plus
Encoding: 43 43 12
Width: 672
VWidth: 0
Flags: HW
LayerCount: 2
Fore
SplineSet
224 223 m 17
 0 223 l 0
 0 335 l 0
 224 335 l 0
 224 558 l 9
 336 558 l 17
 336 335 l 0
 560 335 l 9
 560 223 l 25
 336 222 l 25
 336 -1 l 25
 224 -1 l 25
 224 223 l 17
EndSplineSet
EndChar

StartChar: comma
Encoding: 44 44 13
Width: 672
VWidth: 0
Flags: HW
LayerCount: 2
Fore
SplineSet
224 -112 m 29
 224 112 l 29
 336 112 l 29
 336 -112 l 29
 224 -112 l 29
EndSplineSet
EndChar

StartChar: hyphen
Encoding: 45 45 14
Width: 672
VWidth: 0
Flags: HW
LayerCount: 2
Fore
SplineSet
0 224 m 29
 0 336 l 29
 556 336 l 29
 556 224 l 29
 0 224 l 29
EndSplineSet
EndChar

StartChar: period
Encoding: 46 46 15
Width: 672
VWidth: 0
Flags: HW
LayerCount: 2
Fore
SplineSet
224 0 m 25
 224 112 l 25
 336 112 l 25
 336 0 l 25
 224 0 l 25
EndSplineSet
EndChar

StartChar: slash
Encoding: 47 47 16
Width: 672
VWidth: 0
Flags: HW
LayerCount: 2
Fore
SplineSet
0 -112 m 29
 449 717 l 29
 557 717 l 29
 108 -112 l 29
 0 -112 l 29
EndSplineSet
EndChar

StartChar: zero
Encoding: 48 48 17
Width: 672
VWidth: 0
Flags: HW
LayerCount: 2
Fore
SplineSet
224 224 m 25
 224 336 l 25
 332 336 l 25
 332 224 l 25
 224 224 l 25
112 448 m 1
 112 112 l 1
 560 112 l 1
 560 0 l 1
 0 0 l 1
 0 560 l 1
 560 560 l 1
 560 112 l 1
 448 112 l 1
 448 448 l 1
 112 448 l 1
EndSplineSet
EndChar

StartChar: one
Encoding: 49 49 18
Width: 672
VWidth: 0
Flags: HW
LayerCount: 2
Fore
SplineSet
0 0 m 21
 0 112 l 5
 224 112 l 5
 224 448 l 5
 112 448 l 5
 112 560 l 13
 336 560 l 21
 336 112 l 5
 560 112 l 5
 560 0 l 13
 0 0 l 21
EndSplineSet
EndChar

StartChar: two
Encoding: 50 50 19
Width: 672
VWidth: 0
Flags: HW
LayerCount: 2
Fore
SplineSet
448 224 m 25
 112 224 l 17
 112 112 l 1
 560 112 l 1
 560 0 l 1
 0 0 l 1
 0 336 l 1
 336 336 l 1
 336 448 l 1
 112 448 l 1
 112 560 l 1
 448 560 l 9
 448 224 l 25
EndSplineSet
EndChar

StartChar: three
Encoding: 51 51 20
Width: 672
VWidth: 0
Flags: HW
LayerCount: 2
Fore
SplineSet
0 224 m 29
 0 332 l 29
 336 332 l 21
 336 448 l 5
 0 448 l 5
 0 560 l 5
 448 560 l 5
 448 0 l 5
 0 0 l 5
 0 112 l 5
 336 112 l 5
 336 224 l 13
 0 224 l 29
EndSplineSet
EndChar

StartChar: four
Encoding: 52 52 21
Width: 672
VWidth: 0
Flags: HW
LayerCount: 2
Fore
SplineSet
560 112 m 17
 448 112 l 1
 448 0 l 1
 336 0 l 1
 336 112 l 1
 0 112 l 1
 0 448 l 1
 112 448 l 1
 112 224 l 1
 336 224 l 9
 336 560 l 25
 448 560 l 25
 448 224 l 17
 560 224 l 9
 560 112 l 17
EndSplineSet
EndChar

StartChar: five
Encoding: 53 53 22
Width: 672
VWidth: 0
Flags: HW
LayerCount: 2
Fore
SplineSet
0 224 m 25
 0 560 l 17
 560 560 l 1
 560 448 l 1
 112 448 l 1
 112 336 l 1
 448 336 l 1
 448 0 l 1
 0 0 l 1
 0 112 l 1
 336 112 l 1
 336 224 l 9
 0 224 l 25
EndSplineSet
EndChar

StartChar: six
Encoding: 54 54 23
Width: 672
VWidth: 0
Flags: HW
LayerCount: 2
Fore
SplineSet
0 560 m 29
 332 560 l 29
 332 448 l 21
 112 448 l 5
 112 112 l 5
 448 112 l 5
 448 224 l 5
 112 224 l 5
 112 336 l 5
 560 336 l 5
 560 0 l 5
 0 0 l 13
 0 560 l 29
EndSplineSet
EndChar

StartChar: seven
Encoding: 55 55 24
Width: 672
VWidth: 0
Flags: HW
LayerCount: 2
Fore
SplineSet
560 560 m 17
 560 448 l 1
 448 448 l 5
 448 0 l 5
 336 0 l 5
 336 448 l 5
 0 448 l 1
 0 560 l 9
 560 560 l 17
EndSplineSet
EndChar

StartChar: eight
Encoding: 56 56 25
Width: 672
VWidth: 0
Flags: HW
LayerCount: 2
Fore
SplineSet
0 560 m 25
 560 560 l 25
 560 336 l 17
 448 336 l 1
 448 448 l 1
 112 448 l 1
 112 112 l 1
 448 112 l 1
 448 224 l 1
 112 224 l 1
 112 336 l 1
 560 336 l 1
 560 0 l 1
 0 0 l 9
 0 560 l 25
EndSplineSet
EndChar

StartChar: nine
Encoding: 57 57 26
Width: 672
VWidth: 0
Flags: HW
LayerCount: 2
Fore
SplineSet
560 0 m 25
 336 0 l 25
 336 112 l 17
 448 112 l 1
 448 448 l 1
 112 448 l 1
 112 336 l 1
 448 336 l 1
 448 224 l 1
 0 224 l 1
 0 560 l 1
 560 560 l 9
 560 0 l 25
EndSplineSet
EndChar

StartChar: colon
Encoding: 58 58 27
Width: 672
VWidth: 0
Flags: HW
LayerCount: 2
Fore
SplineSet
224 0 m 29
 224 112 l 29
 332 112 l 29
 332 0 l 29
 224 0 l 29
224 448 m 25
 224 560 l 25
 332 560 l 25
 332 448 l 25
 224 448 l 25
EndSplineSet
EndChar

StartChar: semicolon
Encoding: 59 59 28
Width: 672
VWidth: 0
Flags: HW
LayerCount: 2
Fore
SplineSet
224 448 m 29
 224 560 l 29
 332 560 l 29
 332 448 l 29
 224 448 l 29
224 -112 m 25
 224 112 l 25
 332 112 l 25
 332 -112 l 25
 224 -112 l 25
EndSplineSet
EndChar

StartChar: less
Encoding: 60 60 29
Width: 672
VWidth: 0
Flags: HW
LayerCount: 2
Fore
SplineSet
672 560 m 25
 672 448 l 25
 448 224 l 25
 672 -0 l 25
 672 -112 l 25
 112 224 l 25
 672 560 l 25
EndSplineSet
EndChar

StartChar: equal
Encoding: 61 61 30
Width: 672
VWidth: 0
Flags: HW
LayerCount: 2
Fore
SplineSet
0 338 m 25
 0 450 l 25
 556 449 l 25
 556 338 l 25
 0 338 l 25
0 112 m 25
 0 224 l 25
 556 224 l 25
 556 112 l 25
 0 112 l 25
EndSplineSet
EndChar

StartChar: greater
Encoding: 62 62 31
Width: 672
VWidth: 0
Flags: HW
LayerCount: 2
Fore
SplineSet
0 -112 m 29
 0 -0 l 29
 224 224 l 29
 0 448 l 29
 0 560 l 29
 560 224 l 29
 0 -112 l 29
EndSplineSet
EndChar

StartChar: question
Encoding: 63 63 32
Width: 672
VWidth: 0
Flags: HW
LayerCount: 2
Fore
SplineSet
224 226 m 17
 223 337 l 1
 447 337 l 1
 447 449 l 1
 0 449 l 1
 0 561 l 1
 559 561 l 1
 559 337 l 1
 559 225 l 9
 224 226 l 17
224 0 m 25
 224 112 l 25
 332 112 l 25
 332 0 l 25
 224 0 l 25
EndSplineSet
EndChar

StartChar: at
Encoding: 64 64 33
Width: 672
VWidth: 0
Flags: HW
LayerCount: 2
Fore
SplineSet
559 0 m 29
 559 -112 l 29
 0 -112 l 29
 0 560 l 29
 559 560 l 29
 559 112 l 29
 225 112 l 29
 225 337 l 29
 337 337 l 29
 337 225 l 29
 449 225 l 29
 449 449 l 29
 111 449 l 29
 111 0 l 29
 559 0 l 29
EndSplineSet
EndChar

StartChar: A
Encoding: 65 65 34
Width: 672
VWidth: 0
Flags: HW
LayerCount: 2
Fore
SplineSet
448 0 m 21
 448 448 l 5
 112 448 l 5
 112 224 l 5
 448 224 l 5
 448 112 l 5
 112 112 l 5
 112 0 l 5
 0 0 l 5
 0 560 l 5
 560 560 l 5
 560 0 l 13
 448 0 l 21
EndSplineSet
EndChar

StartChar: B
Encoding: 66 66 35
Width: 672
VWidth: 0
Flags: HW
LayerCount: 2
Fore
SplineSet
560 224 m 29
 112 224 l 17
 112 112 l 1
 448 112 l 5
 448 224 l 5
 560 224 l 5
 560 112 l 5
 560 0 l 5
 0 0 l 1
 0 560 l 1
 448 560 l 5
 448 336 l 5
 336 336 l 5
 336 448 l 5
 112 448 l 1
 112 336 l 9
 560 336 l 29
 560 224 l 29
EndSplineSet
EndChar

StartChar: C
Encoding: 67 67 36
Width: 672
VWidth: 0
Flags: HW
LayerCount: 2
Fore
SplineSet
112 448 m 5
 112 112 l 5
 560 112 l 5
 560 0 l 5
 0 0 l 5
 0 560 l 5
 560 560 l 5
 560 448 l 5
 112 448 l 5
EndSplineSet
EndChar

StartChar: D
Encoding: 68 68 37
Width: 672
VWidth: 0
Flags: HW
LayerCount: 2
Fore
SplineSet
448 448 m 1
 112 448 l 1
 112 0 l 1
 0 0 l 1
 0 560 l 1
 560 560 l 1
 560 0 l 1
 224 0 l 1
 224 112 l 1
 448 112 l 1
 448 448 l 1
EndSplineSet
EndChar

StartChar: E
Encoding: 69 69 38
Width: 672
VWidth: 0
Flags: HW
LayerCount: 2
Fore
SplineSet
448 224 m 29
 112 224 l 21
 112 112 l 5
 560 112 l 5
 560 0 l 5
 0 0 l 5
 0 560 l 5
 560 560 l 5
 560 448 l 5
 112 448 l 5
 112 332 l 13
 448 332 l 29
 448 224 l 29
EndSplineSet
EndChar

StartChar: F
Encoding: 70 70 39
Width: 672
VWidth: 0
Flags: HW
LayerCount: 2
Fore
SplineSet
0 0 m 21
 0 560 l 5
 560 560 l 5
 560 448 l 5
 112 448 l 5
 112 332 l 13
 448 332 l 29
 448 224 l 29
 112 224 l 21
 112 0 l 13
 0 0 l 21
EndSplineSet
EndChar

StartChar: G
Encoding: 71 71 40
Width: 672
VWidth: 0
Flags: HW
LayerCount: 2
Fore
SplineSet
0 560 m 25
 444 560 l 25
 444 448 l 17
 112 448 l 5
 112 112 l 5
 448 112 l 1
 448 224 l 1
 336 224 l 1
 336 336 l 1
 560 336 l 1
 560 0 l 1
 0 0 l 9
 0 560 l 25
EndSplineSet
EndChar

StartChar: H
Encoding: 72 72 41
Width: 672
VWidth: 0
Flags: HW
LayerCount: 2
Fore
SplineSet
0 560 m 13
 112 560 l 21
 112 332 l 13
 448 332 l 21
 448 560 l 5
 560 560 l 5
 560 0 l 5
 448 0 l 5
 448 224 l 13
 112 224 l 21
 112 0 l 13
 0 0 l 21
 0 560 l 13
EndSplineSet
EndChar

StartChar: I
Encoding: 73 73 42
Width: 672
VWidth: 0
Flags: HW
LayerCount: 2
Fore
SplineSet
560 560 m 13
 560 448 l 21
 332 448 l 13
 332 112 l 21
 560 112 l 5
 560 0 l 5
 0 0 l 5
 0 112 l 5
 224 112 l 13
 224 448 l 21
 0 448 l 13
 0 560 l 21
 560 560 l 13
EndSplineSet
EndChar

StartChar: J
Encoding: 74 74 43
Width: 672
VWidth: 0
Flags: HW
LayerCount: 2
Fore
SplineSet
0 0 m 21
 0 112 l 1
 336 112 l 9
 336 448 l 17
 0 448 l 9
 0 560 l 17
 560 560 l 9
 560 448 l 17
 444 448 l 9
 444 0 l 25
 0 0 l 21
EndSplineSet
EndChar

StartChar: K
Encoding: 75 75 44
Width: 672
VWidth: 0
Flags: HW
LayerCount: 2
Fore
SplineSet
0 560 m 13
 112 560 l 21
 112 332 l 13
 224 332 l 21
 224 560 l 5
 560 560 l 5
 560 448 l 5
 336 448 l 5
 336 112 l 5
 560 112 l 5
 560 0 l 5
 224 0 l 5
 224 224 l 13
 112 224 l 21
 112 0 l 13
 0 0 l 21
 0 560 l 13
EndSplineSet
EndChar

StartChar: L
Encoding: 76 76 45
Width: 672
VWidth: 0
Flags: HW
LayerCount: 2
Fore
SplineSet
0 560 m 9
 112 560 l 17
 112 112 l 1
 560 112 l 1
 560 0 l 1
 0 0 l 1
 0 560 l 9
EndSplineSet
EndChar

StartChar: M
Encoding: 77 77 46
Width: 672
VWidth: 0
Flags: HWO
LayerCount: 2
Fore
SplineSet
224 0 m 29
 224 448 l 21
 112 448 l 5
 112 0 l 5
 0 0 l 5
 0 560 l 5
 560 560 l 5
 560 0 l 5
 448 0 l 5
 448 448 l 5
 332 448 l 13
 332 0 l 29
 224 0 l 29
EndSplineSet
EndChar

StartChar: N
Encoding: 78 78 47
Width: 672
VWidth: 0
Flags: HW
LayerCount: 2
Fore
SplineSet
224 0 m 25
 224 448 l 17
 112 448 l 1
 112 0 l 1
 0 0 l 1
 0 560 l 1
 336 560 l 1
 336 112 l 1
 448 112 l 1
 448 560 l 1
 560 560 l 1
 560 0 l 9
 224 0 l 25
EndSplineSet
EndChar

StartChar: O
Encoding: 79 79 48
Width: 672
VWidth: 0
Flags: HW
LayerCount: 2
Fore
SplineSet
112 448 m 5
 112 112 l 5
 560 112 l 5
 560 0 l 5
 0 0 l 5
 0 560 l 5
 560 560 l 5
 560 112 l 5
 448 112 l 5
 448 448 l 5
 112 448 l 5
EndSplineSet
EndChar

StartChar: P
Encoding: 80 80 49
Width: 672
VWidth: 0
Flags: HW
LayerCount: 2
Fore
SplineSet
112 -0 m 13
 0 0 l 29
 0 560 l 21
 560 560 l 5
 560 112 l 5
 112 112 l 5
 112 224 l 5
 448 224 l 5
 448 448 l 5
 112 448 l 5
 112 -0 l 13
EndSplineSet
EndChar

StartChar: Q
Encoding: 81 81 50
Width: 672
VWidth: 0
Flags: HW
LayerCount: 2
Fore
SplineSet
112 448 m 5
 112 112 l 5
 224 112 l 5
 224 224 l 5
 336 224 l 5
 336 112 l 5
 560 112 l 5
 560 0 l 5
 336 0 l 5
 336 -112 l 5
 224 -112 l 5
 224 0 l 5
 0 0 l 5
 0 560 l 5
 560 560 l 5
 560 112 l 5
 448 112 l 5
 448 448 l 5
 112 448 l 5
EndSplineSet
EndChar

StartChar: R
Encoding: 82 82 51
Width: 672
VWidth: 0
Flags: HW
LayerCount: 2
Fore
SplineSet
112 -0 m 9
 0 0 l 25
 0 560 l 17
 560 560 l 1
 560 224 l 1
 448 224 l 1
 448 112 l 1
 560 112 l 1
 560 0 l 1
 336 0 l 1
 336 224 l 1
 224 224 l 1
 224 336 l 1
 448 336 l 1
 448 448 l 1
 112 448 l 1
 112 -0 l 9
EndSplineSet
EndChar

StartChar: S
Encoding: 83 83 52
Width: 672
VWidth: 0
Flags: HW
LayerCount: 2
Fore
SplineSet
0 224 m 29
 0 560 l 21
 448 560 l 5
 448 448 l 5
 112 448 l 5
 112 336 l 5
 560 336 l 5
 560 0 l 5
 0 0 l 5
 0 112 l 5
 448 112 l 5
 448 224 l 13
 0 224 l 29
EndSplineSet
EndChar

StartChar: T
Encoding: 84 84 53
Width: 672
VWidth: 0
Flags: HW
LayerCount: 2
Fore
SplineSet
560 560 m 21
 560 448 l 5
 336 448 l 5
 336 0 l 5
 224 0 l 5
 224 448 l 5
 0 448 l 5
 0 560 l 13
 560 560 l 21
EndSplineSet
EndChar

StartChar: U
Encoding: 85 85 54
Width: 672
VWidth: 0
Flags: HW
LayerCount: 2
Fore
SplineSet
112 560 m 21
 112 112 l 5
 448 112 l 5
 448 560 l 5
 560 560 l 5
 560 0 l 5
 0 0 l 5
 0 560 l 13
 112 560 l 21
EndSplineSet
EndChar

StartChar: V
Encoding: 86 86 55
Width: 672
VWidth: 0
Flags: HW
LayerCount: 2
Fore
SplineSet
112 560 m 21
 112 336 l 5
 224 336 l 5
 224 112 l 5
 336 112 l 5
 336 336 l 5
 448 336 l 5
 448 560 l 5
 560 560 l 5
 560 224 l 5
 448 224 l 5
 448 0 l 5
 112 0 l 5
 112 224 l 5
 0 224 l 5
 0 560 l 13
 112 560 l 21
EndSplineSet
EndChar

StartChar: W
Encoding: 87 87 56
Width: 768
VWidth: 0
Flags: HW
LayerCount: 2
Fore
SplineSet
384.05 639.95 m 25
 384.05 127.95 l 17
 512 128 l 1
 512 640 l 1
 640 640 l 1
 640 0 l 1
 0 0 l 1
 0 640 l 1
 128 640 l 1
 128 128 l 1
 261 128 l 9
 261 640 l 25
 384.05 639.95 l 25
EndSplineSet
EndChar

StartChar: X
Encoding: 88 88 57
Width: 672
VWidth: 0
Flags: HW
LayerCount: 2
Fore
SplineSet
0 560 m 13
 224 560 l 21
 224 332 l 13
 336 332 l 21
 336 560 l 5
 560 560 l 5
 560 448 l 5
 448 448 l 5
 448 112 l 5
 560 112 l 5
 560 0 l 5
 336 0 l 5
 336 224 l 13
 224 224 l 21
 224 0 l 13
 0 0 l 21
 0 112 l 5
 112 112 l 5
 112 448 l 5
 0 448 l 5
 0 560 l 13
EndSplineSet
EndChar

StartChar: Y
Encoding: 89 89 58
Width: 672
VWidth: 0
Flags: HW
LayerCount: 2
Fore
SplineSet
112 336 m 5
 448 336 l 5
 448 560 l 5
 560 560 l 5
 560 224 l 5
 336 224 l 5
 336 0 l 5
 224 0 l 5
 224 224 l 5
 0 224 l 5
 0 560 l 13
 112 560 l 21
 112 336 l 5
EndSplineSet
EndChar

StartChar: Z
Encoding: 90 90 59
Width: 672
VWidth: 0
Flags: HW
LayerCount: 2
Fore
SplineSet
448 224 m 13
 224 224 l 21
 224 112 l 5
 560 112 l 5
 560 0 l 5
 0 0 l 5
 0 112 l 5
 112 112 l 5
 112 336 l 5
 336 336 l 5
 336 448 l 5
 0 448 l 5
 0 560 l 5
 560 560 l 5
 560 446 l 5
 448 446 l 5
 448 224 l 13
EndSplineSet
EndChar

StartChar: bracketleft
Encoding: 91 91 60
Width: 672
VWidth: 0
Flags: HW
LayerCount: 2
Fore
SplineSet
447 561 m 29
 225 561 l 29
 225 0 l 29
 447 0 l 29
 447 -112 l 29
 114 -112 l 29
 114 671 l 29
 447 671 l 29
 447 561 l 29
EndSplineSet
EndChar

StartChar: backslash
Encoding: 92 92 61
Width: 672
VWidth: 0
Flags: HW
LayerCount: 2
Fore
SplineSet
449 -122 m 25
 0 717 l 25
 108 717 l 25
 557 -122 l 25
 449 -122 l 25
EndSplineSet
EndChar

StartChar: bracketright
Encoding: 93 93 62
Width: 672
VWidth: 0
Flags: HW
LayerCount: 2
Fore
SplineSet
113 1 m 29
 335 1 l 29
 335 562 l 29
 113 562 l 29
 113 674 l 29
 447 674 l 29
 447 -109 l 29
 113 -109 l 29
 113 1 l 29
EndSplineSet
EndChar

StartChar: asciicircum
Encoding: 94 94 63
Width: 672
VWidth: 0
Flags: HW
LayerCount: 2
Fore
SplineSet
671 113 m 25
 559 113 l 25
 335 337 l 25
 111 113 l 25
 -1 113 l 25
 335 673 l 25
 671 113 l 25
EndSplineSet
EndChar

StartChar: underscore
Encoding: 95 95 64
Width: 672
VWidth: 0
Flags: HW
LayerCount: 2
Fore
SplineSet
0 -112 m 25
 0 0 l 25
 672 0 l 25
 672 -112 l 25
 0 -112 l 25
EndSplineSet
EndChar

StartChar: grave
Encoding: 96 96 65
Width: 672
VWidth: 0
Flags: HW
LayerCount: 2
Fore
SplineSet
111 560 m 25
 111 672 l 25
 332 672 l 25
 332 560 l 25
 111 560 l 25
EndSplineSet
EndChar

StartChar: a
Encoding: 97 97 66
Width: 672
VWidth: 0
Flags: HW
LayerCount: 2
Fore
SplineSet
448 -0 m 21
 448 336 l 1
 112 336 l 1
 112 112 l 1
 336 112 l 1
 336 0 l 1
 0 0 l 1
 0 448 l 1
 560 448 l 9
 560 0 l 29
 448 -0 l 21
EndSplineSet
EndChar

StartChar: b
Encoding: 98 98 67
Width: 672
VWidth: 0
Flags: HW
LayerCount: 2
Fore
SplineSet
112 560 m 21
 112 112 l 5
 448 112 l 5
 448 336 l 5
 112 336 l 5
 112 448 l 5
 560 448 l 5
 560 0 l 5
 0 0 l 13
 0 560 l 29
 112 560 l 21
EndSplineSet
EndChar

StartChar: c
Encoding: 99 99 68
Width: 672
VWidth: 0
Flags: HW
LayerCount: 2
Fore
SplineSet
112 336 m 5
 112 112 l 5
 560 112 l 5
 560 0 l 5
 0 0 l 5
 0 448 l 5
 560 448 l 5
 560 336 l 5
 112 336 l 5
EndSplineSet
EndChar

StartChar: d
Encoding: 100 100 69
Width: 672
VWidth: 0
Flags: HW
LayerCount: 2
Fore
SplineSet
448 560 m 13
 560 560 l 29
 560 0 l 21
 0 0 l 5
 0 448 l 5
 448 448 l 5
 448 336 l 5
 112 336 l 5
 112 112 l 5
 448 112 l 5
 448 560 l 13
EndSplineSet
EndChar

StartChar: asciitilde
Encoding: 126 126 70
Width: 672
VWidth: 0
Flags: HW
LayerCount: 2
Fore
SplineSet
0 112 m 9
 0 336 l 17
 111 448 l 1
 223 448 l 1
 447 224 l 1
 447 450 l 1
 559 450 l 9
 559 224 l 17
 447 112 l 1
 335 112 l 1
 113 336 l 1
 113 112 l 1
 0 112 l 9
EndSplineSet
EndChar

StartChar: f
Encoding: 102 102 71
Width: 672
VWidth: 0
Flags: HW
LayerCount: 2
Fore
SplineSet
112 -112 m 21
 112 224 l 5
 0 224 l 5
 0 336 l 5
 112 336 l 5
 112 560 l 5
 560 560 l 5
 560 448 l 5
 224 448 l 5
 224 332 l 13
 448 332 l 29
 448 224 l 29
 224 224 l 21
 224 -112 l 13
 112 -112 l 21
EndSplineSet
EndChar

StartChar: g
Encoding: 103 103 72
Width: 672
VWidth: 0
Flags: HW
LayerCount: 2
Fore
SplineSet
560 -112 m 29
 228 -112 l 29
 228 -0 l 21
 448 0 l 5
 448 336 l 5
 112 336 l 5
 112 224 l 5
 336 224 l 5
 336 112 l 5
 0 112 l 5
 0 448 l 5
 560 448 l 13
 560 -112 l 29
EndSplineSet
EndChar

StartChar: h
Encoding: 104 104 73
Width: 672
VWidth: 0
Flags: HW
LayerCount: 2
Fore
SplineSet
560 0 m 21
 448 0 l 1
 448 224 l 9
 112 224 l 17
 112 0 l 9
 0 0 l 17
 0 560 l 9
 112 560 l 17
 112 332 l 9
 560 332 l 25
 560 0 l 21
EndSplineSet
EndChar

StartChar: i
Encoding: 105 105 74
Width: 672
VWidth: 0
Flags: HW
LayerCount: 2
Fore
SplineSet
224 448 m 29
 224 560 l 29
 336 560 l 29
 336 448 l 29
 224 448 l 29
0 0 m 21
 0 112 l 5
 224 112 l 5
 224 224 l 5
 112 224 l 5
 112 336 l 13
 336 336 l 21
 336 112 l 5
 560 112 l 5
 560 0 l 13
 0 0 l 21
EndSplineSet
EndChar

StartChar: j
Encoding: 106 106 75
Width: 672
VWidth: 0
Flags: HW
LayerCount: 2
Fore
SplineSet
224 448 m 25
 224 560 l 25
 336 560 l 25
 336 448 l 25
 224 448 l 25
112 336 m 9
 560 336 l 17
 560 224 l 1
 336 224 l 1
 336 -112 l 9
 0 -112 l 17
 0 0 l 1
 224 0 l 1
 224 224 l 1
 112 224 l 1
 112 336 l 9
EndSplineSet
EndChar

StartChar: k
Encoding: 107 107 76
Width: 672
VWidth: 0
Flags: HW
LayerCount: 2
Fore
SplineSet
0 560 m 9
 112 560 l 17
 112 224 l 9
 224 224 l 17
 224 336 l 1
 448 336 l 1
 448 224 l 1
 336 224 l 1
 336 112 l 1
 560 112 l 1
 560 0 l 1
 224 0 l 1
 224 116 l 9
 112 116 l 17
 112 0 l 9
 0 0 l 17
 0 560 l 9
EndSplineSet
EndChar

StartChar: l
Encoding: 108 108 77
Width: 672
VWidth: 0
Flags: HW
LayerCount: 2
Fore
SplineSet
560 224 m 17
 560 0 l 1
 112 0 l 1
 112 448 l 1
 0 448 l 1
 0 560 l 9
 224 560 l 17
 224 112 l 1
 448 112 l 1
 448 224 l 9
 560 224 l 17
EndSplineSet
EndChar

StartChar: m
Encoding: 109 109 78
Width: 672
VWidth: 0
Flags: HW
LayerCount: 2
Fore
SplineSet
224 0 m 29
 224 336 l 21
 112 336 l 5
 112 0 l 5
 0 0 l 5
 0 448 l 5
 560 448 l 5
 560 0 l 5
 448 0 l 5
 448 336 l 5
 332 336 l 13
 332 0 l 29
 224 0 l 29
EndSplineSet
EndChar

StartChar: n
Encoding: 110 110 79
Width: 672
VWidth: 0
Flags: HW
LayerCount: 2
Fore
SplineSet
448 336 m 5
 112 336 l 5
 112 0 l 5
 0 0 l 5
 0 448 l 5
 560 448 l 5
 560 0 l 5
 448 0 l 5
 448 336 l 5
EndSplineSet
EndChar

StartChar: o
Encoding: 111 111 80
Width: 672
VWidth: 0
Flags: HW
LayerCount: 2
Fore
SplineSet
112 336 m 5
 112 112 l 5
 560 112 l 5
 560 0 l 5
 0 0 l 5
 0 448 l 5
 560 448 l 5
 560 112 l 5
 448 112 l 5
 448 336 l 5
 112 336 l 5
EndSplineSet
EndChar

StartChar: p
Encoding: 112 112 81
Width: 672
VWidth: 0
Flags: HW
LayerCount: 2
Fore
SplineSet
112 -112 m 9
 0 -112 l 25
 0 448 l 17
 560 448 l 1
 560 0 l 1
 224 0 l 1
 224 112 l 1
 448 112 l 1
 448 336 l 1
 112 336 l 1
 112 -112 l 9
EndSplineSet
EndChar

StartChar: q
Encoding: 113 113 82
Width: 672
VWidth: 0
Flags: HW
LayerCount: 2
Fore
SplineSet
448 -112 m 17
 448 336 l 1
 112 336 l 1
 112 224 l 5
 448 224 l 5
 448 112 l 5
 0 112 l 5
 0 448 l 1
 560 448 l 9
 560 -112 l 25
 448 -112 l 17
EndSplineSet
EndChar

StartChar: r
Encoding: 114 114 83
Width: 672
VWidth: 0
Flags: HW
LayerCount: 2
Fore
SplineSet
560 448 m 9
 560 336 l 17
 112 336 l 1
 112 0 l 1
 0 0 l 1
 0 448 l 1
 560 448 l 9
EndSplineSet
EndChar

StartChar: s
Encoding: 115 115 84
Width: 672
VWidth: 0
Flags: HW
LayerCount: 2
Fore
SplineSet
224 336 m 9
 224 224 l 25
 0 224 l 17
 0 336 l 5
 112 336 l 1
 112 448 l 1
 560 448 l 1
 560 336 l 1
 224 336 l 9
336 112 m 9
 336 224 l 25
 560 224 l 17
 560 112 l 1
 448 112 l 1
 448 0 l 1
 0 0 l 1
 0 112 l 1
 336 112 l 9
EndSplineSet
EndChar

StartChar: t
Encoding: 116 116 85
Width: 672
VWidth: 0
Flags: HW
LayerCount: 2
Fore
SplineSet
224 560 m 13
 336 560 l 21
 336 448 l 13
 560 448 l 29
 560 340 l 29
 336 340 l 21
 336 112 l 5
 560 112 l 5
 560 0 l 5
 224 0 l 5
 224 336 l 5
 0 336 l 5
 0 448 l 5
 224 448 l 5
 224 560 l 13
EndSplineSet
EndChar

StartChar: u
Encoding: 117 117 86
Width: 672
VWidth: 0
Flags: HW
LayerCount: 2
Fore
SplineSet
112 112 m 5
 448 112 l 5
 448 448 l 5
 560 448 l 5
 560 0 l 5
 0 0 l 5
 0 448 l 5
 112 448 l 5
 112 112 l 5
EndSplineSet
EndChar

StartChar: v
Encoding: 118 118 87
Width: 672
VWidth: 0
Flags: HW
LayerCount: 2
Fore
SplineSet
112 448 m 17
 112 224 l 1
 224 224 l 1
 224 112 l 1
 336 112 l 1
 336 224 l 1
 448 224 l 1
 448 448 l 1
 560 448 l 1
 560 112 l 1
 448 112 l 1
 448 0 l 1
 112 0 l 1
 112 112 l 1
 0 112 l 1
 0 448 l 9
 112 448 l 17
EndSplineSet
EndChar

StartChar: w
Encoding: 119 119 88
Width: 672
VWidth: 0
Flags: HW
LayerCount: 2
Fore
SplineSet
224 448 m 29
 332 448 l 29
 332 112 l 21
 448 112 l 5
 448 448 l 5
 560 448 l 5
 560 0 l 5
 0 0 l 5
 0 448 l 5
 112 448 l 5
 112 112 l 5
 224 112 l 13
 224 448 l 29
EndSplineSet
EndChar

StartChar: x
Encoding: 120 120 89
Width: 672
VWidth: 0
Flags: HW
LayerCount: 2
Fore
SplineSet
0 448 m 9
 224 448 l 17
 224 332 l 9
 336 332 l 17
 336 448 l 1
 560 448 l 1
 560 336 l 1
 448 336 l 1
 448 112 l 1
 560 112 l 1
 560 0 l 1
 336 0 l 1
 336 112 l 9
 224 112 l 17
 224 0 l 9
 0 0 l 17
 0 112 l 1
 112 112 l 1
 112 336 l 1
 0 336 l 1
 0 448 l 9
EndSplineSet
EndChar

StartChar: y
Encoding: 121 121 90
Width: 672
VWidth: 0
Flags: HW
LayerCount: 2
Fore
SplineSet
0 112 m 29
 0 448 l 25
 112 448 l 25
 112 224 l 25
 448 224 l 25
 448 448 l 25
 560 448 l 25
 560 -112 l 25
 112 -112 l 25
 112 0 l 25
 448 0 l 25
 448 112 l 25
 0 112 l 29
EndSplineSet
EndChar

StartChar: z
Encoding: 122 122 91
Width: 672
VWidth: 0
Flags: HW
LayerCount: 2
Fore
SplineSet
224 112 m 21
 560 112 l 5
 560 0 l 5
 0 0 l 5
 0 112 l 5
 112 112 l 5
 112 224 l 13
 224 224 l 29
 224 112 l 21
336 336 m 21
 0 336 l 5
 0 448 l 5
 560 448 l 5
 560 334 l 5
 448 334 l 5
 448 224 l 13
 336 224 l 29
 336 336 l 21
EndSplineSet
EndChar

StartChar: braceleft
Encoding: 123 123 92
Width: 672
VWidth: 0
Flags: HW
LayerCount: 2
Fore
SplineSet
559 561 m 25
 337 561 l 25
 337 0 l 25
 559 0 l 25
 559 -112 l 25
 224 -112 l 17
 224 225 l 1
 0 225 l 1
 0 337 l 1
 224 337 l 1
 224 671 l 9
 559 671 l 25
 559 561 l 25
EndSplineSet
EndChar

StartChar: bar
Encoding: 124 124 93
Width: 672
VWidth: 0
Flags: HW
LayerCount: 2
Fore
SplineSet
224 -112 m 25
 225 717 l 25
 333 717 l 25
 332 -112 l 25
 224 -112 l 25
EndSplineSet
EndChar

StartChar: braceright
Encoding: 125 125 94
Width: 672
VWidth: 0
Flags: HW
LayerCount: 2
Fore
SplineSet
0 0 m 29
 222 0 l 29
 222 561 l 29
 0 561 l 29
 0 673 l 29
 335 673 l 21
 335 336 l 5
 559 336 l 5
 559 224 l 5
 335 224 l 5
 335 -110 l 13
 0 -110 l 29
 0 0 l 29
EndSplineSet
EndChar

